<svg id="图层_1" data-name="图层 1" xmlns="http://www.w3.org/2000/svg" xmlns:xlink="http://www.w3.org/1999/xlink" viewBox="0 0 3776.7 3763.81"><defs><style>.cls-1{fill:none;stroke-width:140px;stroke:url(#未命名的渐变_47);}.cls-1,.cls-3{stroke-miterlimit:10;}.cls-2,.cls-3{stroke:#000;}.cls-2{stroke-linejoin:round;stroke-width:25px;}.cls-3{font-size:258.06px;stroke-width:15px;font-family:FZFENGYKS_ZHONGJW--GB1-0, FZFENGYKS ZHONGJW--GB1-0;}</style><linearGradient id="未命名的渐变_47" x1="1888.35" y1="3763.81" x2="1888.35" gradientUnits="userSpaceOnUse"><stop offset="0.01" stop-color="#f49600"/><stop offset="0.59" stop-color="#d7291e"/><stop offset="0.64" stop-color="#bc2a20"/><stop offset="0.76" stop-color="#832c25"/><stop offset="0.87" stop-color="#5a2e29"/><stop offset="0.95" stop-color="#402f2b"/><stop offset="1" stop-color="#372f2c"/></linearGradient></defs><ellipse class="cls-1" cx="1888.35" cy="1881.9" rx="1818.35" ry="1811.9"/><path class="cls-2" d="M2003.53,1243.24l130.23-30.06,218.38,111.91a140.27,140.27,0,0,0-13.07,42.59q-13.07,23.08-19.57,52.44-13.07,32.87-13.07,75.45s-3.24,555.56,0,809.76c1.71,133.74,23,237.63,154.5,259.91,90.51,15.34,228.22,6.44,292.1-20.67,45.47-19.29,66.72-38.53,93.7-71.64,30.31-37.21,55.16-87.16,77-161.5L2989,2324.6c-13.06,74.22-17.42,125.67-13.06,154q13.07,78.66,88.22,104.87c-23,65.06-38.33,106.48-85.89,140.23-67.69,48-124.28,55.44-187.16,67.5-97.14,18.63-280.58,26.2-411.47,8.29-270.07-36.95-335.86-183.09-333.65-438.63V1433.29q0-55.76-9.82-104.87A288.19,288.19,0,0,0,2003.53,1243.24Z" transform="translate(-39.33 -46.38)"/><path class="cls-2" d="M934.4,1210l274.55-6.12c321.59-15.26,642.3-37.91,962-65.9,75.88-6.12,140.39-35.54,202.14-70.33a788.76,788.76,0,0,0,143.13-94.8c18.76-11.7,37.07-14.2,54.51-8.05L2862.79,1111c-1.85,18-34.29,62.69-71.12,70.6-56.68,12.16-96.59,17-161.5,24.13L1055.88,1318.48Z" transform="translate(-39.33 -46.38)"/><path class="cls-2" d="M915,2850c177.28-85.75,332.71-191.76,434.37-331,89.55-122.63,141-262.63,173.05-451.48,17.71-104.18,37.07-207.7,32.24-429.48-.84-38.5-9-79.36-19.34-111.88-5.5-18.44-18-41.64-30.94-76.76l23.6-36.18,196.26,73c22.12,8.41,34.12,23.44,36,45.28v65.41c-1.87,199.73-12.62,359.32-28.53,458.89-46.54,291.34-102.48,401.76-274.05,565.38-151.52,144.5-325,199.58-520,265.83Z" transform="translate(-39.33 -46.38)"/><text class="cls-3" transform="translate(2676.79 851.36)">DE</text></svg>