<?xml version="1.0" encoding="utf-8"?>
<!-- Generator: Adobe Illustrator 24.0.1, SVG Export Plug-In . SVG Version: 6.00 Build 0)  -->
<svg version="1.1" xmlns="http://www.w3.org/2000/svg" xmlns:xlink="http://www.w3.org/1999/xlink" x="0px" y="0px"
	 viewBox="0 0 3776.7 3763.8" style="enable-background:new 0 0 3776.7 3763.8;" xml:space="preserve">
<style type="text/css">
	.st0{fill:none;stroke:url(#SVGID_1_);stroke-width:140;stroke-miterlimit:10;}
	.st1{display:none;}
	.st2{display:inline;}
</style>
<g id="图层_1">
	
		<linearGradient id="SVGID_1_" gradientUnits="userSpaceOnUse" x1="1888.35" y1="0.2" x2="1888.35" y2="3764" gradientTransform="matrix(1 0 0 -1 0 3764)">
		<stop  offset="1.000000e-02" style="stop-color:#F49600"/>
		<stop  offset="0.59" style="stop-color:#D7291E"/>
		<stop  offset="0.64" style="stop-color:#BC2A20"/>
		<stop  offset="0.76" style="stop-color:#832C25"/>
		<stop  offset="0.87" style="stop-color:#5A2E29"/>
		<stop  offset="0.95" style="stop-color:#402F2B"/>
		<stop  offset="1" style="stop-color:#372F2C"/>
	</linearGradient>
	<ellipse class="st0" cx="1888.3" cy="1881.9" rx="1818.3" ry="1811.9"/>
</g>
<g id="图层_2">
	<path class="st1" d="M1667.1,1202c139.2-45.9,230.8-68.9,274.9-68.9c44.1,0,95,7.5,152.9,22.5c57.8,15,90.6,34.9,98.5,59.7
		c7.8,24.7,11.8,51.3,11.8,79.5c0,28.3-11.8,46.4-35.3,54.4c-23.5,8-58.8,25.6-105.8,53c-47.1,27.4-84.3,51.7-111.7,72.9
		c76.4,47.8,114.6,84.4,114.6,110.1c0,25.6-13.7,42-41.2,49c-27.4,7.1-75,27.4-142.6,61c-67.6,33.6-125.9,65.4-174.9,95.5
		c-5.9,40.7,5.9,61,35.3,61s61.3-6.2,95.6-18.5s62.2-18.6,83.8-18.6c21.5,0,40.2,7.5,55.9,22.5c15.7,15,23.5,33.6,23.5,55.7
		c0,22.1-5.9,35.8-17.6,41.1c-11.8,5.3-46,15.5-102.9,30.5c-56.8,15-99.5,27.4-127.9,37.1s-52.4,14.6-72,14.6
		c-19.6,0-37.8-11-54.4-33.2c-16.7-22.1-36.7-57.9-60.2-107.4c-37.3,19.4-77.5,29.2-120.6,29.2c-43.1,0-94.1-24.7-152.9-74.2
		c-52.9,249.3-106.3,445.5-160.2,588.7c-53.9,143.2-126,259.8-216.1,350c-90.2,90.2-147.5,135.2-172,135.2s-36.7-31.8-36.7-95.5
		c0-104.3,7.8-156.4,23.5-156.4c7.8,0,17.6,15,29.4,45.1c162.7-162.6,290.1-523.3,382.2-1081.9c-9.8-1.7-20.6-2.6-32.4-2.6
		s-24.5,3.1-38.2,9.3c-13.7,6.2-26.4,9.3-38.2,9.3c-29.4,0-53.4-13.7-72-41.1c-18.6-27.4-27.9-55.7-27.9-84.8
		c0-29.2,6.4-51.3,19.1-66.3c12.7-15,27-22.5,42.6-22.5l29.4,7.9c9.8,0,29.4-7.1,58.8-21.2c92.1-42.4,213.6-87.5,364.6-135.2
		c-3.9-24.7-5.9-53.9-5.9-87.5c-7.9-7.1-11.8-15-11.8-23.9c0-8.8,12.7-29.2,38.2-61c5.9-38.9,8.8-76.4,8.8-112.7
		s-10.3-65.4-30.9-87.5c-20.6-22.1-40.7-50.8-60.3-86.2s-29.4-59.2-29.4-71.6c0-12.4,2.4-18.6,7.4-18.6c4.9,0,13.2,5.3,25,15.9
		c27.4,24.7,55.9,37.1,85.3,37.1l35.3-2.7c47,0,83.3,15.9,108.8,47.7c19.6,5.3,40.2,8,61.7,8c45.1,0,84.3-9.7,117.6-29.2
		c19.6-10.6,38.7-15.9,57.3-15.9c18.6,0,50.5,11.5,95.6,34.5c45.1,23,67.6,50.8,67.6,83.5s-18.6,50.8-55.8,54.3
		c-11.8,1.8-34.3,9.3-67.6,22.6c-33.3,13.3-67.1,29.2-101.4,47.7s-73,29.6-116.1,33.1c2,12.4,2.9,31.4,2.9,57
		C1681.8,1138.9,1676.9,1168.5,1667.1,1202z M2337.4,2652.5c327.3-5.3,531.1-40.7,611.5-106.1c80.4-65.4,120.6-144.1,120.6-236
		c0-26.5-2-52.6-5.9-78.2c-3.9-25.6-5.9-42.9-5.9-51.7s1-13.3,2.9-13.3c7.8,0,22,27,42.6,80.9s53.9,130.4,100,229.3
		c46,99,69.1,157.3,69.1,175c0,17.6-9.3,31.4-27.9,41.1c-18.6,9.7-64.2,25.6-136.7,47.7c-72.5,22.1-166.6,39.8-282.2,53
		c-115.7,13.2-237.2,19.9-364.6,19.9c-311.6,0-513-29.6-604.2-88.8c-91.1-59.2-136.7-149.8-136.7-271.8c0-61.9,16.7-145.8,50-251.9
		c3.9-12.4,5.9-24.3,5.9-35.8c0-11.5-7.9-17.2-23.5-17.2c-15.7,0-44.6,10.6-86.7,31.8c-42.1,21.2-72,48.6-89.7,82.2
		c3.9,17.7,5.9,33.6,5.9,47.7c0,44.2-25.5,112.2-76.4,204.2l-108.8,196.2c-23.5,40.7-44.1,61-61.8,61s-34.3-7.1-50-21.2
		c-15.7-14.2-23.5-50-23.5-107.4c0-57.4,9.8-95.9,29.4-115.4c35.3-35.4,69.1-86.6,101.4-153.8c32.4-67.2,48.5-133.5,48.5-198.9
		c0-35.4,10.3-60.5,30.9-75.6c20.6-15,35.3-22.5,44.1-22.5s13.2,2.7,13.2,8s-2.9,11.5-8.8,18.5c-5.9,7.1-8.8,15.1-8.8,23.9
		s5.9,20.3,17.6,34.5c145-84.8,255.8-127.3,332.2-127.3c37.2,0,67.6,10.2,91.1,30.5c23.5,20.3,35.3,44.6,35.3,72.9
		c0,28.3-9.8,58.3-29.4,90.2c-19.6,31.8-37.2,75.6-52.9,131.3c-15.7,55.7-23.5,105.2-23.5,148.5c0,43.3,19.6,75.6,58.8,96.8
		s98,34.5,176.4,39.8c133.2-79.5,235.7-183,307.2-310.3c71.5-127.3,107.3-207.7,107.3-241.3c0-17.6-6.9-26.5-20.6-26.5
		c-37.2,0-92.1,44.2-164.6,132.6c-35.3,44.2-62.2,66.3-80.8,66.3c-18.6,0-32.9-24.7-42.6-74.2c-9.8-49.5-14.7-87.1-14.7-112.7
		c0-25.6,5.9-47.7,17.6-66.3c11.8-18.5,30.4-37.6,55.9-57c25.5-19.4,51.4-53.9,77.9-103.4s39.7-83.5,39.7-102.1
		c0-18.5-10.8-27.8-32.3-27.8c-37.3,0-98,30.1-182.3,90.2c-15.7,10.6-26.5,15.9-32.4,15.9c-13.7,0-23.5-30.1-29.4-90.2l-11.8-87.5
		c0-26.5,12.7-46.8,38.2-61c35.3-19.4,92.6-75.1,172-167c79.4-91.9,119.1-159.1,119.1-201.5c0-17.7-6.9-30.9-20.6-39.8
		c-45.1-28.3-67.6-50.4-67.6-66.3c0-3.5,2.4-5.3,7.4-5.3c4.9,0,13.2,4.4,25,13.3c25.5,19.4,50,26.5,73.5,21.2s47-8,70.6-8
		s61.7,8.9,114.7,26.5c52.9,17.7,85.7,33.2,98.5,46.4c12.7,13.3,19.1,35.4,19.1,66.3c0,30.9-3.9,53.9-11.8,68.9
		c-7.9,15-29.4,33.2-64.7,54.3c-94.1,61.9-180.3,130-258.7,204.2c137.2,14.1,217.5,40.2,241.1,78.2s35.3,73.8,35.3,107.4
		c0,24.7-15.7,46-47.1,63.6c-37.2,19.5-70.6,57.5-100,114c170.5,28.3,255.8,82.2,255.8,161.8c0,28.3-18.6,67.2-55.9,116.7
		c-37.2,49.5-100,119.3-188.2,209.5C2478.5,2543.8,2402.1,2610.1,2337.4,2652.5z M1634.8,1477.8c113.7-42.4,192.1-87.9,235.2-136.5
		c43.1-48.6,64.7-86.2,64.7-112.7c0-10.6-9.8-15.9-29.4-15.9c-19.6,0-55.9,9.3-108.8,27.8c-52.9,18.6-118.6,56.1-197,112.7
		c-21.5,61.9-38.7,92.8-51.4,92.8c-12.8,0-25-11.5-36.8-34.5c-76.4,49.5-152.9,90.2-229.3,122c7.8,37.1,18.1,63.2,30.9,78.2
		c12.7,15,19.1,36.3,19.1,63.7c0,27.4-8.8,59.7-26.4,96.8c49-7.1,127.4-44.2,235.2-111.4c2-42.4-0.5-74.6-7.4-96.8
		c-6.9-22.1-19.6-39.8-38.2-53c-18.6-13.2-27.9-24.7-27.9-34.5c0-9.7,14.7-14.6,44.1-14.6S1581.8,1467.2,1634.8,1477.8z
		 M1767.1,1491.1c-11.8-3.5-25.5-5.3-41.2-5.3c-15.7,0-26.4,10.6-32.3,31.8c9.8,10.6,18.6,24.7,26.5,42.4c33.3-21.2,50-40.7,50-58.3
		C1770,1498.2,1769,1494.6,1767.1,1491.1z"/>
	<g class="st1">
		<path class="st2" d="M2125.3,1068.5c109.3-23.8,196.2-35.8,260.8-35.8c64.6,0,119.2,14.4,164,43.2c44.7,28.8,67.1,63.6,67.1,104.3
			s-21.4,75-64.1,102.9c-42.7,27.8-118.2,83.5-226.6,166.9c-108.3,83.4-169.9,134.1-184.8,152c-14.9,17.9-24.4,47.7-28.3,89.4
			c77.5,6,148.5,36.8,213.1,92.4c64.6,55.6,107.3,100.3,128.2,134.1c20.8,33.8,31.3,71.6,31.3,113.3c0,33.8-10.5,68.6-31.3,104.3
			c-20.9,35.8-41.3,94.4-61.1,175.9c-61.6,248.4-142.6,438.7-242.9,570.9c-100.3,132.1-176.4,198.2-228,198.2
			c-41.8,0-75.5-36.3-101.3-108.8c-25.8-72.6-77.5-164.5-155-275.8l-38.7-62.6c-85.5,111.3-169.5,194.8-251.9,250.4
			c-82.5,55.6-150.5,83.4-204.2,83.4c-45.7,0-81.5-26.8-107.3-80.5c-25.8-53.7-38.7-87-38.7-99.9c0-13,5.5-19.4,16.4-19.4
			c10.9,0,25.3,7.9,43.2,23.9c17.9,15.9,43.7,23.9,77.5,23.9c43.7,0,98.9-35.3,165.5-105.8c66.6-70.6,145.6-212.1,237-424.8
			c-2-49.7-1-109.3,3-178.9c-63.6,2-112.8-6.9-147.6-26.8c-34.8-19.9-52.1-48.7-52.1-86.5c0-37.7,7.4-81,22.4-129.7
			c14.9-48.7,31.8-81,50.7-96.9c18.9-15.9,47.7-23.9,86.4-23.9s83-15.9,132.7-47.7c29.8-178.8,58.1-284.7,85-317.4
			c26.8-32.8,67.1-49.2,120.7-49.2c35.8,0,89.4,21.9,161,65.6c95.4-89.4,143.1-145,143.1-166.9c0-7.9-6-11.9-17.9-11.9
			c-29.8,0-93.9,16.4-192.3,49.2c-98.4,32.8-178.4,71.1-240,114.8c-166.9,119.2-310,211.1-429.3,275.7
			c-119.2,64.6-209.7,96.9-271.3,96.9c-67.6,0-130.7-30.8-189.3-92.4c-58.7-61.6-87.9-98.4-87.9-110.3c0-11.9,2.5-19.9,7.4-23.9
			c5-4,38.3-19.4,99.9-46.2c61.6-26.8,150-61.6,265.3-104.3c115.3-42.7,261.3-92.9,438.2-150.5c99.3-33.8,161.4-58.6,186.3-74.5
			c24.8-15.9,63.1-53.7,114.8-113.3c51.7-59.6,97.4-116.7,137.1-171.4c39.7-54.6,65.6-95.4,77.5-122.2
			c11.9-26.8,17.9-57.6,17.9-92.4s-4.5-72.1-13.4-111.8c-8.9-39.7-32.3-59.6-70-59.6c-23.9,0-45.2,7.5-64.1,22.4
			c-18.9,14.9-54.2,71.6-105.8,169.9c-51.7,98.4-80.5,190.3-86.4,275.7c-6,85.5-26.3,148.5-61.1,189.3
			c-34.8,40.8-69.5,61.1-104.3,61.1s-77-30.8-126.7-92.4c-49.7-61.6-74.5-144.1-74.5-247.4c0-37.7,4-77,11.9-117.7
			c7.9-40.7,19.9-61.1,35.8-61.1c15.9,0,34.8,11,56.6,32.8c21.9,21.9,54.2,32.8,96.9,32.8c42.7,0,80-20.8,111.8-62.6
			c131.1-174.9,263.3-262.3,396.4-262.3c81.5,0,149.5,31.8,204.2,95.4c54.6,63.6,82,134.7,82,213.2s-44.7,146.6-134.2,204.2
			C2182,969.1,2143.2,1014.8,2125.3,1068.5z M1409.9,2129.7c-97.4,87.5-183.3,171.9-257.9,253.4c-74.5,81.5-128.7,148.5-162.4,201.2
			s-61.1,88.9-82,108.8c-20.9,19.8-42.7,29.8-65.6,29.8c-22.9,0-42.3-17.4-58.1-52.1c-15.9-34.8-23.8-80-23.8-135.6
			s10.4-107.8,31.3-156.5c20.8-48.7,39.7-78,56.6-87.9c16.9-9.9,24.3-24.8,22.4-44.7c-2-4,1.5-8.9,10.4-14.9
			c8.9-6,17.4-8.9,25.3-8.9c7.9,0,15.9,4,23.9,11.9c7.9,7.9,11.9,18.9,11.9,32.8l-6,26.8c0,17.9,10.4,26.8,31.3,26.8
			c20.8,0,49.2-8.9,85-26.8L1409.9,2129.7z M1648.4,2085c-27.8,8-46.7,14.9-56.6,20.9c-6,31.8-4,69.6,6,113.3
			C1625.5,2185.3,1642.4,2140.6,1648.4,2085z M1684.2,2544c61.6,119.2,136.1,178.8,223.5,178.8c27.8,0,51.2-11.4,70.1-34.2
			c18.9-22.9,59.1-121.7,120.7-296.6c61.6-174.9,92.4-288.2,92.4-339.8c0-51.7-8-94.9-23.9-129.7s-36.8-52.2-62.6-52.2
			c-53.7,0-109.3,58.7-166.9,175.9C1883.9,2173.4,1799.4,2339.3,1684.2,2544z M1845.2,1560.3c0-31.8-10.5-47.7-31.3-47.7
			c-20.9,0-43.7,14.4-68.6,43.2c-24.9,28.8-40.3,67.1-46.2,114.8C1760.7,1630.9,1809.4,1594.1,1845.2,1560.3z M2748.4,2314.5
			c61.6,0,124.7,42.2,189.3,126.7c64.6,84.5,96.9,162.5,96.9,234c0,21.9-7,42.2-20.9,61.1c-13.9,18.9-32.3,28.3-55.1,28.3
			s-73.5-20.4-152-61.1c-78.5-40.8-155.5-109.3-231-205.7c-75.5-96.4-113.3-151.5-113.3-165.4c0-6,4-9.4,11.9-10.4
			c7.9-1,41.7-2.5,101.3-4.5C2635.1,2315.5,2692.7,2314.5,2748.4,2314.5z"/>
	</g>
	<g>
		<path d="M2104.3,1222.8c144.3,50.6,248.8,102.6,313.5,156c64.7,53.4,125.1,101.2,181.4,143.4c56.2,42.2,103.1,73.6,140.6,94.2
			c37.5,20.6,108.7,52,213.7,94.2c104.9,42.2,178.1,73.1,219.3,92.8c41.2,19.7,75.5,42.6,102.6,68.9s40.8,47.3,40.8,63.3
			c0,15.9-6.6,28.1-19.7,36.5c-13.1,8.4-54.8,17.8-125.1,28.1s-133.6,15.5-189.8,15.5c-103.1,0-170.6-13.1-202.4-39.4
			c-31.9-26.2-180.9-179-447.1-458.3c-35.6-37.5-79.7-65.1-132.1-82.9c-52.5-17.8-121.8-32.3-208.1-43.6
			c-253.1,419.9-427.4,644.9-523,674.8c3.7,31.9,5.6,65.6,5.6,101.2c0,35.6-8,71.3-23.9,106.8c-15.9,35.6-35.2,84.8-57.6,147.6
			c-22.5,62.8-38.4,116.2-47.8,160.2c-9.4,44-20.6,78.7-33.8,104c-13.1,25.3-20.6,52.9-22.5,82.9c-3.8,58.1-20.6,87.2-50.6,87.2
			c-24.4,0-52-19.2-82.9-57.6c-30.9-38.5-60.4-81.1-88.6-127.9c-28.1-46.9-42.2-105-42.2-174.3c0-69.4,18.7-221.2,56.2-455.5
			c3.7-28.1,5.6-57.2,5.6-87.2c0-60-8.4-95.6-25.3-106.8c-58.1-33.7-87.2-111.5-87.2-233.4c0-127.5,19.2-218.8,57.6-274.1
			c38.4-55.3,123.3-110.1,254.5-164.5c20.6-9.4,30.9-29.1,30.9-59.1c0-18.7-10.3-44.5-30.9-77.3c-20.6-32.8-43.1-74.5-67.5-125.1
			c-24.4-50.6-36.5-82-36.5-94.2c0-12.2,5.2-18.3,15.5-18.3c10.3,0,21.1,3.8,32.3,11.3c99.3,58.1,167.8,94.7,205.3,109.7
			c93.7,37.5,156.5,81.1,188.4,130.7c31.9,49.7,47.8,92.8,47.8,129.4c0,36.5-15.5,68.9-46.4,97c-30.9,28.1-62.3,42.2-94.2,42.2
			c-11.3,0-25.8-4.2-43.6-12.6c-17.8-8.4-33.8-12.7-47.8-12.7c-14.1,0-37.5,9.4-70.3,28.1c-32.8,18.7-62.3,28.1-88.6,28.1
			s-56.7-5.2-91.4-15.5c-34.7-10.3-57.6-15.5-68.8-15.5c-26.3,0-39.4,17.4-39.4,52c0,34.7,30.4,101.2,91.4,199.6
			c60.9,98.4,91.4,185.1,91.4,260c0,37.5-7.5,74.1-22.5,109.7c-39.4,93.7-77.4,195.4-113.9,305.1c-36.5,109.7-54.8,167.3-54.8,172.9
			c0,18.7,9.4,28.1,28.1,28.1c43.1,0,103.1-49.2,179.9-147.6c76.8-98.4,114.3-169.2,112.5-212.3c-33.8-3.7-50.6-13.1-50.6-28.1
			s15-38.4,45-70.3c116.2-127.5,253.5-334.6,411.9-621.4c158.4-286.8,237.6-447.1,237.6-480.8c0-7.5-1.4-14.5-4.2-21.1
			c-2.8-6.5-4.2-12.6-4.2-18.3c0-22.5,15.9-33.7,47.8-33.7c31.9,0,75,25.3,129.4,75.9c54.3,50.6,81.5,92.8,81.5,126.5
			c0,33.8-23.5,63.3-70.3,88.6C2169.9,1131.4,2132.5,1170.3,2104.3,1222.8z M1972.2,2257.4c-37.5,101.2-61.9,161.7-73.1,181.4
			c-11.3,19.7-16.9,38.9-16.9,57.6c0,75,90.9,112.5,272.7,112.5c78.7,0,158.4-8,239-23.9c80.6-15.9,132.1-56.2,154.6-120.9
			c22.5-64.7,33.7-112.9,33.7-144.8c0-31.9-1.9-57.6-5.6-77.3c-3.7-19.7-5.6-35.6-5.6-47.8c0-12.2,2.3-18.3,7-18.3
			s12.6,7.5,23.9,22.5c11.3,15,25.8,44,43.6,87.2c17.8,43.1,34.7,94.2,50.6,153.2c15.9,59.1,23.9,98,23.9,116.7l-2.8,42.2
			c0,20.6,1.9,40.3,5.6,59.1l5.6,42.2c0,30-47.4,53.9-142,71.7c-94.6,17.8-215.1,26.7-361.3,26.7s-244.6-4.2-295.2-12.6
			c-50.6-8.4-93.7-40.3-129.3-95.6c-35.6-55.3-53.4-124.2-53.4-206.7c0-58.1,13.1-126.5,39.4-205.2c26.2-78.7,39.4-133.1,39.4-163.1
			c0-30-11.3-53.9-33.7-71.7c-22.5-17.8-33.7-34.2-33.7-49.2c0-24.3,14-36.5,42.2-36.5c39.4,0,85.3,18.7,137.8,56.2
			s74,84.4,64.7,140.6c28.1,20.6,56.2,30.9,84.3,30.9c46.8,0,80.6-28.1,101.2-84.3c20.6-56.2,30.9-125.6,30.9-208.1
			c0-37.5-5.6-56.2-16.9-56.2c-11.3,0-34.7,22-70.3,66.1c-35.6,44.1-75,66.1-118.1,66.1c-30,0-76.9-15-140.6-45
			c-63.7-30-95.6-57.2-95.6-81.5c0-24.4,9.8-45,29.5-61.9c19.7-16.9,70.3-40.3,151.8-70.3c81.5-30,142.4-45,182.7-45
			c40.3,0,92.3,11.3,156.1,33.7c63.7,22.5,113.9,53.4,150.4,92.8c36.5,39.4,54.8,73.6,54.8,102.6s-7.5,51.1-22.5,66.1
			s-30.9,48.3-47.8,99.8c-16.9,51.6-53.4,118.1-109.7,199.6c-56.2,81.6-106.4,122.3-150.4,122.3
			C2129.2,2381.1,2062.2,2339.9,1972.2,2257.4z"/>
	</g>
</g>
</svg>
